<svg width="36" height="27" viewBox="0 0 36 27" fill="none" xmlns="http://www.w3.org/2000/svg">
<path id="Vector" d="M35.5305 3.34508H1.39842C1.26794 3.34508 1.15704 3.30321 1.06571 3.21945C0.974377 3.13569 0.928711 3.03399 0.928711 2.91434V1.19138C0.928711 1.07173 0.974377 0.970032 1.06571 0.886276C1.15704 0.802521 1.26794 0.760643 1.39842 0.760643H35.5305C35.661 0.760643 35.7719 0.802521 35.8632 0.886276C35.9546 0.970032 36.0002 1.07173 36.0002 1.19138V2.91434C36.0002 3.03399 35.9546 3.13569 35.8632 3.21945C35.7719 3.30321 35.661 3.34508 35.5305 3.34508ZM35.5305 14.8315H1.39842C1.26794 14.8315 1.15704 14.7896 1.06571 14.7058C0.974377 14.6221 0.928711 14.5204 0.928711 14.4007V12.6778C0.928711 12.5581 0.974377 12.4564 1.06571 12.3727C1.15704 12.2889 1.26794 12.247 1.39842 12.247H35.5305C35.661 12.247 35.7719 12.2889 35.8632 12.3727C35.9546 12.4564 36.0002 12.5581 36.0002 12.6778V14.4007C36.0002 14.5204 35.9546 14.6221 35.8632 14.7058C35.7719 14.7896 35.661 14.8315 35.5305 14.8315ZM35.5305 26.3179H1.39842C1.26794 26.3179 1.15704 26.276 1.06571 26.1922C0.974377 26.1085 0.928711 26.0068 0.928711 25.8871V24.1642C0.928711 24.0445 0.974377 23.9428 1.06571 23.8591C1.15704 23.7753 1.26794 23.7334 1.39842 23.7334H35.5305C35.661 23.7334 35.7719 23.7753 35.8632 23.8591C35.9546 23.9428 36.0002 24.0445 36.0002 24.1642V25.8871C36.0002 26.0068 35.9546 26.1085 35.8632 26.1922C35.7719 26.276 35.661 26.3179 35.5305 26.3179Z" fill="white"/>
</svg>
